<svg id="svg" version="1.1" xmlns="http://www.w3.org/2000/svg" xmlns:xlink="http://www.w3.org/1999/xlink" width="400" height="240" viewBox="0, 0, 400,240"><g id="svgg"><path id="path0" d="M214.694 140.264 C 214.474 140.484,214.406 146.118,214.406 164.155 L 214.406 187.759 229.952 187.697 L 245.498 187.635 245.574 187.100 C 245.616 186.805,245.400 186.211,245.093 185.779 C 244.246 184.584,243.937 184.074,243.783 183.613 C 243.705 183.382,243.492 183.193,243.309 183.193 C 243.127 183.193,242.977 182.990,242.977 182.742 C 242.977 182.495,242.815 182.157,242.617 181.993 C 242.419 181.828,242.257 181.545,242.257 181.363 C 242.257 181.181,242.151 181.032,242.021 181.032 C 241.892 181.032,241.718 180.762,241.635 180.432 C 241.552 180.102,241.388 179.832,241.270 179.832 C 241.153 179.832,241.056 179.670,241.056 179.472 C 241.056 179.274,240.894 179.112,240.696 179.112 C 240.471 179.112,240.336 178.884,240.336 178.504 C 240.336 178.170,240.184 177.838,239.998 177.766 C 239.811 177.695,239.593 177.374,239.513 177.053 C 239.432 176.733,239.261 176.471,239.131 176.471 C 239.002 176.471,238.896 176.309,238.896 176.110 C 238.896 175.912,238.799 175.750,238.681 175.750 C 238.564 175.750,238.400 175.480,238.317 175.150 C 238.234 174.820,238.060 174.550,237.931 174.550 C 237.801 174.550,237.695 174.388,237.695 174.190 C 237.695 173.992,237.533 173.830,237.335 173.830 C 237.110 173.830,236.975 173.602,236.975 173.222 C 236.975 172.887,236.813 172.552,236.615 172.476 C 236.417 172.400,236.255 172.187,236.255 172.003 C 236.255 171.819,236.149 171.669,236.019 171.669 C 235.889 171.669,235.716 171.399,235.633 171.068 C 235.550 170.738,235.398 170.468,235.296 170.468 C 235.194 170.468,235.047 170.279,234.969 170.048 C 234.768 169.450,234.265 168.700,233.914 168.475 C 233.748 168.370,233.613 168.069,233.613 167.808 C 233.613 167.546,233.451 167.270,233.253 167.194 C 233.055 167.118,232.893 166.905,232.893 166.721 C 232.893 166.537,232.797 166.387,232.679 166.387 C 232.561 166.387,232.397 166.116,232.314 165.786 C 232.232 165.456,232.058 165.186,231.928 165.186 C 231.799 165.186,231.693 165.024,231.693 164.826 C 231.693 164.628,231.531 164.466,231.333 164.466 C 231.110 164.466,230.972 164.240,230.972 163.877 C 230.972 163.554,230.837 163.203,230.672 163.097 C 230.321 162.872,229.818 162.122,229.617 161.525 C 229.539 161.294,229.392 161.104,229.290 161.104 C 229.187 161.104,229.036 160.834,228.953 160.504 C 228.870 160.174,228.696 159.904,228.567 159.904 C 228.437 159.904,228.331 159.742,228.331 159.544 C 228.331 159.346,228.169 159.184,227.971 159.184 C 227.746 159.184,227.611 158.956,227.611 158.576 C 227.611 158.242,227.449 157.906,227.251 157.830 C 227.053 157.754,226.891 157.541,226.891 157.357 C 226.891 157.173,226.794 157.023,226.677 157.023 C 226.559 157.023,226.395 156.753,226.312 156.423 C 226.229 156.092,226.055 155.822,225.926 155.822 C 225.796 155.822,225.690 155.672,225.690 155.488 C 225.690 155.304,225.537 155.094,225.349 155.022 C 225.161 154.950,224.969 154.642,224.923 154.336 C 224.876 154.031,224.706 153.809,224.544 153.842 C 224.381 153.875,224.250 153.660,224.250 153.359 C 224.250 153.060,223.993 152.539,223.679 152.201 C 223.365 151.862,223.034 151.350,222.943 151.063 C 222.851 150.775,222.676 150.540,222.553 150.540 C 222.430 150.540,222.329 150.378,222.329 150.180 C 222.329 149.982,222.167 149.820,221.969 149.820 C 221.747 149.820,221.609 149.594,221.609 149.232 C 221.609 148.908,221.468 148.557,221.296 148.451 C 221.123 148.346,220.794 147.854,220.564 147.359 C 220.334 146.864,220.054 146.459,219.943 146.459 C 219.831 146.459,219.672 146.188,219.589 145.858 C 219.506 145.528,219.333 145.258,219.203 145.258 C 219.074 145.258,218.968 145.093,218.968 144.890 C 218.968 144.688,218.806 144.461,218.607 144.385 C 218.409 144.309,218.247 144.068,218.247 143.849 C 218.247 143.631,217.977 143.161,217.647 142.805 C 217.317 142.449,217.047 141.988,217.047 141.780 C 217.047 141.572,216.885 141.339,216.687 141.263 C 216.489 141.187,216.327 140.975,216.327 140.791 C 216.327 140.607,216.132 140.456,215.894 140.456 C 215.657 140.456,215.354 140.348,215.222 140.216 C 215.062 140.056,214.886 140.072,214.694 140.264 " stroke="none" fill="#f44c34" fill-rule="evenodd"></path><path id="path1" d="M336.615 50.060 C 336.384 50.338,335.745 50.420,333.817 50.420 C 331.817 50.420,331.290 50.492,331.179 50.780 C 331.077 51.048,330.651 51.140,329.520 51.140 C 328.684 51.140,327.933 51.248,327.851 51.381 C 327.770 51.513,327.231 51.621,326.654 51.621 C 326.041 51.621,325.455 51.771,325.244 51.981 C 325.046 52.179,324.459 52.341,323.936 52.341 C 323.386 52.341,322.862 52.492,322.689 52.701 C 322.525 52.899,322.022 53.061,321.572 53.061 C 321.066 53.061,320.700 53.199,320.615 53.421 C 320.536 53.627,320.178 53.782,319.782 53.782 C 319.400 53.782,319.088 53.876,319.088 53.991 C 319.088 54.106,318.655 54.269,318.127 54.354 C 317.599 54.438,317.167 54.614,317.167 54.745 C 317.167 54.875,316.893 54.982,316.559 54.982 C 316.225 54.982,315.889 55.144,315.813 55.342 C 315.737 55.540,315.413 55.702,315.093 55.702 C 314.773 55.702,314.449 55.864,314.373 56.062 C 314.297 56.261,313.976 56.423,313.660 56.423 C 313.309 56.423,313.085 56.563,313.085 56.783 C 313.085 56.981,312.923 57.143,312.725 57.143 C 312.527 57.143,312.365 57.251,312.365 57.383 C 312.365 57.515,312.119 57.623,311.818 57.623 C 311.282 57.623,310.444 58.357,310.444 58.826 C 310.444 58.957,310.120 59.064,309.724 59.064 C 309.244 59.064,309.004 59.184,309.004 59.424 C 309.004 59.622,308.887 59.784,308.745 59.784 C 308.603 59.784,308.162 60.108,307.766 60.504 C 307.370 60.900,306.965 61.224,306.867 61.224 C 306.590 61.224,304.442 63.347,304.442 63.621 C 304.442 63.756,304.280 63.866,304.082 63.866 C 303.884 63.866,303.721 64.028,303.721 64.226 C 303.721 64.424,303.616 64.586,303.486 64.586 C 303.356 64.586,303.183 64.856,303.100 65.186 C 303.017 65.516,302.799 65.786,302.615 65.786 C 302.431 65.786,302.281 65.883,302.281 66.001 C 302.281 66.119,302.013 66.471,301.685 66.782 C 301.357 67.093,301.087 67.590,301.085 67.887 C 301.082 68.205,300.932 68.427,300.720 68.427 C 300.522 68.427,300.360 68.578,300.360 68.762 C 300.360 68.946,300.198 69.158,300.000 69.234 C 299.802 69.310,299.640 69.581,299.640 69.835 C 299.640 70.089,299.478 70.359,299.280 70.435 C 299.082 70.511,298.920 70.847,298.920 71.181 C 298.920 71.515,298.812 71.789,298.679 71.789 C 298.547 71.789,298.439 72.059,298.439 72.389 C 298.439 72.762,298.303 72.989,298.079 72.989 C 297.839 72.989,297.719 73.229,297.719 73.709 C 297.719 74.190,297.599 74.430,297.359 74.430 C 297.110 74.430,296.999 74.680,296.999 75.241 C 296.999 75.687,296.837 76.186,296.639 76.351 C 296.441 76.515,296.279 76.960,296.279 77.340 C 296.279 77.720,296.181 78.031,296.061 78.031 C 295.941 78.031,295.769 78.571,295.678 79.231 C 295.588 79.892,295.415 80.492,295.296 80.566 C 295.176 80.640,295.078 81.512,295.078 82.504 C 295.078 83.787,294.974 84.412,294.718 84.668 C 294.429 84.957,294.358 85.757,294.358 88.703 C 294.358 91.677,294.426 92.435,294.718 92.677 C 294.985 92.899,295.078 93.491,295.078 94.973 C 295.078 96.072,295.176 97.031,295.296 97.105 C 295.415 97.179,295.588 97.780,295.678 98.440 C 295.769 99.100,295.941 99.640,296.061 99.640 C 296.181 99.640,296.279 99.956,296.279 100.343 C 296.279 100.730,296.441 101.208,296.639 101.406 C 296.837 101.604,296.999 102.044,296.999 102.384 C 296.999 102.773,297.132 103.001,297.359 103.001 C 297.611 103.001,297.719 103.255,297.719 103.849 C 297.719 104.381,297.853 104.748,298.079 104.835 C 298.277 104.911,298.439 105.195,298.439 105.465 C 298.439 105.736,298.709 106.311,299.040 106.744 C 299.370 107.177,299.640 107.700,299.640 107.907 C 299.640 108.114,299.802 108.283,300.000 108.283 C 300.198 108.283,300.360 108.481,300.360 108.724 C 300.360 108.966,300.790 109.629,301.315 110.198 C 301.840 110.767,302.334 111.434,302.412 111.679 C 302.490 111.924,302.654 112.125,302.777 112.125 C 302.900 112.125,303.001 112.242,303.001 112.386 C 303.001 112.529,303.595 113.227,304.322 113.936 C 305.048 114.645,305.642 115.338,305.642 115.476 C 305.642 115.614,305.755 115.726,305.894 115.726 C 306.032 115.726,306.396 115.996,306.702 116.327 C 307.008 116.657,307.381 116.927,307.531 116.927 C 307.680 116.927,307.803 117.089,307.803 117.287 C 307.803 117.489,308.017 117.647,308.291 117.647 C 308.559 117.647,308.841 117.809,308.917 118.007 C 308.993 118.205,309.205 118.367,309.389 118.367 C 309.573 118.367,309.724 118.529,309.724 118.727 C 309.724 118.926,309.886 119.088,310.084 119.088 C 310.282 119.088,310.444 119.194,310.444 119.323 C 310.444 119.453,310.714 119.626,311.044 119.709 C 311.375 119.792,311.645 119.956,311.645 120.074 C 311.645 120.192,311.795 120.288,311.979 120.288 C 312.163 120.288,312.376 120.450,312.452 120.648 C 312.528 120.846,312.863 121.008,313.198 121.008 C 313.578 121.008,313.806 121.143,313.806 121.369 C 313.806 121.588,314.029 121.729,314.380 121.729 C 314.696 121.729,315.017 121.891,315.093 122.089 C 315.169 122.287,315.505 122.449,315.839 122.449 C 316.173 122.449,316.447 122.557,316.447 122.689 C 316.447 122.821,316.717 122.929,317.047 122.929 C 317.420 122.929,317.647 123.065,317.647 123.289 C 317.647 123.529,317.887 123.649,318.367 123.649 C 318.848 123.649,319.088 123.770,319.088 124.010 C 319.088 124.262,319.342 124.370,319.936 124.370 C 320.468 124.370,320.835 124.504,320.922 124.730 C 320.998 124.928,321.326 125.090,321.651 125.090 C 321.977 125.090,322.405 125.252,322.603 125.450 C 322.801 125.648,323.165 125.810,323.412 125.810 C 323.659 125.810,323.928 125.918,324.010 126.050 C 324.091 126.182,324.518 126.291,324.958 126.291 C 325.449 126.291,325.813 126.430,325.897 126.651 C 325.983 126.874,326.348 127.011,326.858 127.011 C 327.367 127.011,327.732 127.148,327.818 127.371 C 327.905 127.599,328.274 127.731,328.821 127.731 C 329.297 127.731,329.848 127.893,330.046 128.091 C 330.244 128.289,330.831 128.451,331.350 128.451 C 331.868 128.451,332.293 128.559,332.293 128.691 C 332.293 128.824,332.766 128.932,333.344 128.932 C 333.985 128.932,334.511 129.072,334.694 129.292 C 334.867 129.501,335.391 129.652,335.941 129.652 C 336.464 129.652,337.051 129.813,337.249 130.012 C 337.451 130.214,338.050 130.376,338.613 130.380 C 339.164 130.384,339.826 130.546,340.082 130.740 C 340.338 130.934,340.893 131.092,341.315 131.092 C 341.737 131.092,342.391 131.254,342.770 131.451 C 343.148 131.648,343.802 131.810,344.224 131.811 C 344.645 131.812,345.056 131.921,345.138 132.053 C 345.220 132.185,345.809 132.293,346.447 132.293 C 347.257 132.293,347.649 132.402,347.746 132.653 C 347.840 132.898,348.223 133.013,348.943 133.013 C 349.591 133.013,350.117 133.153,350.300 133.373 C 350.465 133.571,350.972 133.733,351.427 133.733 C 351.883 133.733,352.417 133.896,352.615 134.094 C 352.827 134.305,353.414 134.454,354.039 134.454 C 354.624 134.454,355.102 134.562,355.102 134.694 C 355.102 134.826,355.523 134.934,356.037 134.934 C 356.646 134.934,357.020 135.059,357.110 135.294 C 357.200 135.530,357.574 135.654,358.190 135.654 C 358.806 135.654,359.180 135.779,359.270 136.014 C 359.357 136.240,359.724 136.375,360.257 136.375 C 360.850 136.375,361.104 136.483,361.104 136.735 C 361.104 136.933,361.312 137.095,361.565 137.095 C 362.059 137.095,363.573 137.817,363.705 138.115 C 363.749 138.214,364.047 138.295,364.366 138.295 C 364.721 138.295,364.946 138.435,364.946 138.655 C 364.946 138.854,365.095 139.016,365.277 139.016 C 365.459 139.016,365.742 139.178,365.906 139.376 C 366.071 139.574,366.408 139.736,366.656 139.736 C 366.904 139.736,367.107 139.852,367.107 139.993 C 367.107 140.326,367.718 140.936,368.050 140.936 C 368.192 140.936,368.307 141.210,368.307 141.544 C 368.307 141.878,368.469 142.214,368.667 142.290 C 368.866 142.366,369.028 142.636,369.028 142.890 C 369.028 143.144,369.190 143.415,369.388 143.491 C 369.608 143.575,369.748 143.939,369.748 144.429 C 369.748 144.870,369.856 145.297,369.988 145.378 C 370.123 145.462,370.228 146.621,370.228 148.033 C 370.228 149.545,370.133 150.540,369.988 150.540 C 369.856 150.540,369.748 150.961,369.748 151.475 C 369.748 152.084,369.623 152.458,369.388 152.548 C 369.190 152.624,369.028 152.948,369.028 153.268 C 369.028 153.588,368.866 153.912,368.667 153.988 C 368.469 154.064,368.307 154.297,368.307 154.506 C 368.307 154.714,368.037 155.135,367.707 155.441 C 367.377 155.747,367.107 156.133,367.107 156.298 C 367.107 156.675,365.340 158.463,364.967 158.463 C 364.815 158.463,364.629 158.625,364.553 158.824 C 364.477 159.022,364.264 159.184,364.080 159.184 C 363.896 159.184,363.745 159.292,363.745 159.424 C 363.745 159.556,363.583 159.664,363.385 159.664 C 363.187 159.664,363.025 159.826,363.025 160.024 C 363.025 160.244,362.801 160.384,362.451 160.384 C 362.135 160.384,361.814 160.546,361.738 160.744 C 361.662 160.942,361.377 161.104,361.104 161.104 C 360.832 161.104,360.547 161.267,360.471 161.465 C 360.392 161.670,360.034 161.825,359.638 161.825 C 359.256 161.825,358.944 161.919,358.944 162.034 C 358.944 162.149,358.511 162.313,357.983 162.397 C 357.455 162.482,357.023 162.657,357.023 162.788 C 357.023 162.918,356.449 163.025,355.748 163.025 C 354.999 163.025,354.281 163.171,354.007 163.378 C 353.306 163.908,339.871 163.915,339.341 163.385 C 339.130 163.174,338.543 163.025,337.918 163.025 C 337.333 163.025,336.855 162.918,336.855 162.788 C 336.855 162.657,336.423 162.482,335.894 162.397 C 335.366 162.313,334.934 162.149,334.934 162.034 C 334.934 161.919,334.502 161.825,333.974 161.825 C 333.280 161.825,333.013 161.725,333.013 161.465 C 333.013 161.267,332.805 161.104,332.550 161.104 C 332.295 161.104,331.925 160.942,331.727 160.744 C 331.529 160.546,331.251 160.384,331.110 160.384 C 330.968 160.384,330.852 160.278,330.852 160.149 C 330.852 160.019,330.582 159.845,330.252 159.762 C 329.922 159.680,329.652 159.515,329.652 159.398 C 329.652 159.280,329.490 159.184,329.292 159.184 C 329.094 159.184,328.932 159.022,328.932 158.824 C 328.932 158.625,328.770 158.463,328.571 158.463 C 328.373 158.463,328.211 158.301,328.211 158.103 C 328.211 157.905,328.100 157.743,327.963 157.743 C 327.652 157.743,326.291 156.368,326.291 156.054 C 326.291 155.927,326.128 155.822,325.930 155.822 C 325.732 155.822,325.570 155.660,325.570 155.462 C 325.570 155.264,325.474 155.102,325.356 155.102 C 325.238 155.102,325.074 154.832,324.991 154.502 C 324.909 154.172,324.735 153.902,324.605 153.902 C 324.476 153.902,324.370 153.739,324.370 153.541 C 324.370 153.343,324.208 153.181,324.010 153.181 C 323.784 153.181,323.649 152.954,323.649 152.573 C 323.649 152.239,323.487 151.904,323.289 151.828 C 323.091 151.752,322.929 151.431,322.929 151.115 C 322.929 150.799,322.830 150.540,322.708 150.540 C 322.587 150.540,322.416 150.216,322.329 149.820 C 322.242 149.424,322.071 149.100,321.950 149.100 C 321.828 149.100,321.729 148.783,321.729 148.397 C 321.729 148.010,321.567 147.531,321.369 147.333 C 321.170 147.135,321.008 146.654,321.008 146.265 C 321.008 145.876,320.846 145.422,320.648 145.258 C 320.441 145.086,320.288 144.563,320.288 144.028 C 320.288 143.361,320.186 143.097,319.928 143.097 C 319.688 143.097,319.568 142.857,319.568 142.377 C 319.568 141.981,319.467 141.657,319.344 141.657 C 319.221 141.657,319.049 141.434,318.963 141.163 C 318.877 140.891,318.546 140.570,318.227 140.448 C 317.908 140.327,317.647 140.117,317.647 139.982 C 317.647 139.847,317.282 139.736,316.836 139.736 C 316.390 139.736,315.891 139.574,315.726 139.376 C 315.504 139.108,314.910 139.016,313.408 139.016 C 311.835 139.016,311.359 139.095,311.251 139.376 C 311.137 139.674,310.493 139.736,307.530 139.736 C 304.566 139.736,303.923 139.798,303.808 140.096 C 303.694 140.394,303.051 140.456,300.094 140.456 C 297.076 140.456,296.519 140.512,296.519 140.816 C 296.519 141.102,296.173 141.176,294.852 141.176 C 293.936 141.176,293.119 141.285,293.037 141.417 C 292.956 141.549,292.690 141.657,292.446 141.657 C 291.702 141.657,290.276 143.096,290.276 143.848 C 290.276 144.212,290.158 144.583,290.013 144.672 C 289.852 144.772,289.809 145.172,289.904 145.707 C 289.988 146.186,290.134 147.303,290.228 148.189 C 290.322 149.075,290.534 149.934,290.698 150.098 C 290.862 150.262,290.996 150.793,290.996 151.279 C 290.996 151.771,291.156 152.294,291.357 152.461 C 291.555 152.625,291.717 153.117,291.717 153.554 C 291.717 153.990,291.879 154.510,292.077 154.708 C 292.275 154.906,292.437 155.454,292.437 155.925 C 292.437 156.397,292.545 156.783,292.677 156.783 C 292.809 156.783,292.917 157.045,292.917 157.366 C 292.917 157.687,293.079 158.111,293.277 158.309 C 293.475 158.507,293.637 158.939,293.637 159.269 C 293.637 159.600,293.800 160.032,293.998 160.230 C 294.196 160.428,294.358 160.814,294.358 161.087 C 294.358 161.369,294.514 161.585,294.718 161.585 C 294.939 161.585,295.078 161.809,295.078 162.165 C 295.078 162.753,295.767 164.278,296.098 164.426 C 296.197 164.470,296.279 164.767,296.279 165.086 C 296.279 165.442,296.418 165.666,296.639 165.666 C 296.864 165.666,296.999 165.894,296.999 166.274 C 296.999 166.608,297.161 166.944,297.359 167.020 C 297.557 167.096,297.719 167.417,297.719 167.733 C 297.719 168.083,297.859 168.307,298.079 168.307 C 298.303 168.307,298.439 168.534,298.439 168.908 C 298.439 169.238,298.547 169.508,298.679 169.508 C 298.812 169.508,298.920 169.673,298.920 169.875 C 298.920 170.078,299.082 170.305,299.280 170.381 C 299.478 170.457,299.640 170.727,299.640 170.982 C 299.640 171.236,299.802 171.506,300.000 171.582 C 300.198 171.658,300.360 171.871,300.360 172.054 C 300.360 172.238,300.522 172.389,300.720 172.389 C 300.922 172.389,301.080 172.603,301.080 172.877 C 301.080 173.145,301.242 173.427,301.441 173.503 C 301.639 173.579,301.801 173.752,301.801 173.888 C 301.801 174.024,302.071 174.385,302.401 174.691 C 302.731 174.997,303.001 175.360,303.001 175.499 C 303.001 175.637,303.163 175.750,303.361 175.750 C 303.559 175.750,303.721 175.912,303.721 176.110 C 303.721 176.309,303.837 176.471,303.979 176.471 C 304.311 176.471,304.922 177.081,304.922 177.414 C 304.922 177.555,305.084 177.671,305.282 177.671 C 305.480 177.671,305.642 177.833,305.642 178.031 C 305.642 178.229,305.804 178.391,306.002 178.391 C 306.200 178.391,306.363 178.553,306.363 178.752 C 306.363 178.950,306.476 179.112,306.614 179.112 C 306.752 179.112,307.116 179.382,307.422 179.712 C 307.728 180.042,308.158 180.312,308.378 180.312 C 308.598 180.312,308.841 180.474,308.917 180.672 C 308.993 180.870,309.205 181.032,309.389 181.032 C 309.573 181.032,309.724 181.194,309.724 181.393 C 309.724 181.591,309.886 181.753,310.084 181.753 C 310.282 181.753,310.444 181.859,310.444 181.988 C 310.444 182.118,310.714 182.292,311.044 182.374 C 311.375 182.457,311.645 182.621,311.645 182.739 C 311.645 182.857,311.848 182.953,312.095 182.953 C 312.343 182.953,312.681 183.115,312.845 183.313 C 313.010 183.511,313.281 183.673,313.449 183.673 C 313.617 183.673,313.816 183.836,313.892 184.034 C 313.968 184.232,314.204 184.394,314.415 184.394 C 314.627 184.394,314.962 184.556,315.160 184.754 C 315.358 184.952,315.729 185.114,315.984 185.114 C 316.238 185.114,316.447 185.221,316.447 185.351 C 316.447 185.482,316.879 185.658,317.407 185.742 C 317.935 185.827,318.367 185.990,318.367 186.105 C 318.367 186.220,318.680 186.315,319.062 186.315 C 319.458 186.315,319.816 186.469,319.895 186.675 C 319.980 186.898,320.346 187.035,320.855 187.035 C 321.364 187.035,321.730 187.172,321.816 187.395 C 321.909 187.640,322.293 187.755,323.012 187.755 C 323.660 187.755,324.187 187.895,324.370 188.115 C 324.541 188.322,325.065 188.475,325.600 188.475 C 326.112 188.475,326.531 188.583,326.531 188.715 C 326.531 188.851,327.213 188.956,328.099 188.956 C 329.271 188.956,329.702 189.046,329.805 189.316 C 329.912 189.593,330.373 189.676,331.813 189.676 C 333.253 189.676,333.714 189.759,333.820 190.036 C 333.935 190.336,334.619 190.396,337.908 190.396 C 340.748 190.396,341.883 190.476,341.952 190.682 C 342.089 191.093,349.931 191.101,350.342 190.690 C 350.550 190.482,351.777 190.396,354.533 190.396 C 357.676 190.396,358.499 190.327,358.789 190.036 C 359.049 189.776,359.683 189.676,361.070 189.676 C 362.457 189.676,363.091 189.576,363.351 189.316 C 363.576 189.090,364.167 188.956,364.929 188.956 C 365.599 188.956,366.146 188.848,366.146 188.715 C 366.146 188.583,366.679 188.475,367.330 188.475 C 368.062 188.475,368.651 188.338,368.873 188.115 C 369.071 187.917,369.612 187.755,370.074 187.755 C 370.536 187.755,371.076 187.593,371.274 187.395 C 371.472 187.197,371.953 187.035,372.342 187.035 C 372.732 187.035,373.185 186.873,373.349 186.675 C 373.514 186.477,373.959 186.315,374.339 186.315 C 374.719 186.315,375.030 186.206,375.030 186.074 C 375.030 185.942,375.279 185.834,375.584 185.834 C 375.889 185.834,376.348 185.676,376.605 185.482 C 376.861 185.288,377.247 185.126,377.462 185.122 C 377.677 185.117,377.987 184.952,378.151 184.754 C 378.316 184.556,378.656 184.394,378.908 184.394 C 379.161 184.394,379.425 184.241,379.497 184.055 C 379.568 183.869,379.889 183.651,380.209 183.571 C 380.530 183.490,380.792 183.318,380.792 183.189 C 380.792 183.059,381.008 182.953,381.273 182.953 C 381.537 182.953,381.753 182.857,381.753 182.739 C 381.753 182.621,382.023 182.457,382.353 182.374 C 382.683 182.292,382.953 182.118,382.953 181.988 C 382.953 181.859,383.115 181.753,383.313 181.753 C 383.511 181.753,383.673 181.591,383.673 181.393 C 383.673 181.168,383.900 181.032,384.274 181.032 C 384.647 181.032,384.874 180.896,384.874 180.672 C 384.874 180.474,384.997 180.312,385.147 180.312 C 385.296 180.312,385.669 180.042,385.975 179.712 C 386.281 179.382,386.645 179.112,386.783 179.112 C 386.922 179.112,387.035 178.950,387.035 178.752 C 387.035 178.553,387.185 178.391,387.369 178.391 C 387.553 178.391,387.766 178.229,387.842 178.031 C 387.918 177.833,388.119 177.666,388.288 177.660 C 388.457 177.654,388.812 177.371,389.076 177.031 C 389.340 176.692,389.745 176.210,389.976 175.962 C 390.207 175.713,390.396 175.402,390.396 175.270 C 390.396 175.138,390.558 175.030,390.756 175.030 C 390.954 175.030,391.116 174.918,391.116 174.781 C 391.116 174.643,391.549 174.082,392.077 173.532 C 392.605 172.982,393.037 172.389,393.037 172.213 C 393.037 172.037,393.199 171.832,393.397 171.755 C 393.595 171.679,393.758 171.467,393.758 171.283 C 393.758 171.099,393.866 170.948,393.998 170.948 C 394.130 170.948,394.238 170.729,394.238 170.461 C 394.238 170.192,394.400 169.911,394.598 169.835 C 394.796 169.759,394.958 169.558,394.958 169.388 C 394.958 169.218,395.120 169.017,395.318 168.941 C 395.516 168.865,395.678 168.541,395.678 168.220 C 395.678 167.900,395.840 167.576,396.038 167.500 C 396.236 167.424,396.399 167.143,396.399 166.874 C 396.399 166.606,396.498 166.387,396.620 166.387 C 396.741 166.387,396.912 166.062,396.999 165.666 C 397.086 165.270,397.256 164.946,397.378 164.946 C 397.500 164.946,397.599 164.564,397.599 164.098 C 397.599 163.566,397.733 163.199,397.959 163.112 C 398.157 163.036,398.319 162.708,398.319 162.382 C 398.319 162.057,398.481 161.628,398.679 161.430 C 398.878 161.232,399.040 160.763,399.040 160.387 C 399.040 160.011,399.142 159.668,399.266 159.624 C 400.306 159.256,400.306 134.861,399.266 134.494 C 399.142 134.450,399.040 134.041,399.040 133.586 C 399.040 133.072,398.903 132.706,398.679 132.620 C 398.461 132.536,398.319 132.173,398.319 131.696 C 398.319 131.265,398.157 130.777,397.959 130.612 C 397.761 130.448,397.599 130.056,397.599 129.743 C 397.599 129.429,397.500 129.172,397.378 129.172 C 397.256 129.172,397.086 128.848,396.999 128.451 C 396.912 128.055,396.741 127.731,396.620 127.731 C 396.498 127.731,396.399 127.512,396.399 127.243 C 396.399 126.975,396.236 126.693,396.038 126.617 C 395.840 126.541,395.678 126.288,395.678 126.054 C 395.678 125.820,395.516 125.495,395.318 125.330 C 395.120 125.166,394.958 124.882,394.958 124.700 C 394.958 124.519,394.796 124.370,394.598 124.370 C 394.400 124.370,394.238 124.169,394.238 123.925 C 394.238 123.680,393.968 123.188,393.637 122.832 C 393.307 122.476,393.037 122.082,393.037 121.956 C 393.037 121.831,392.875 121.729,392.677 121.729 C 392.479 121.729,392.317 121.567,392.317 121.369 C 392.317 121.170,392.206 121.008,392.071 121.008 C 391.936 121.008,391.722 120.738,391.597 120.408 C 391.471 120.078,391.258 119.808,391.122 119.808 C 390.987 119.808,390.876 119.695,390.876 119.556 C 390.876 119.202,388.680 117.167,388.297 117.167 C 388.123 117.167,387.918 117.005,387.842 116.807 C 387.766 116.609,387.553 116.447,387.369 116.447 C 387.185 116.447,387.035 116.285,387.035 116.086 C 387.035 115.888,386.873 115.726,386.675 115.726 C 386.477 115.726,386.315 115.564,386.315 115.366 C 386.315 115.168,386.152 115.006,385.954 115.006 C 385.756 115.006,385.594 114.910,385.594 114.792 C 385.594 114.674,385.324 114.510,384.994 114.427 C 384.664 114.344,384.394 114.171,384.394 114.041 C 384.394 113.912,384.243 113.806,384.059 113.806 C 383.875 113.806,383.663 113.643,383.587 113.445 C 383.511 113.247,383.175 113.085,382.841 113.085 C 382.460 113.085,382.233 112.950,382.233 112.725 C 382.233 112.527,382.071 112.365,381.873 112.365 C 381.675 112.365,381.513 112.259,381.513 112.129 C 381.513 112.000,381.242 111.826,380.912 111.743 C 380.582 111.660,380.312 111.496,380.312 111.379 C 380.312 111.261,379.988 111.164,379.592 111.164 C 379.112 111.164,378.872 111.044,378.872 110.804 C 378.872 110.567,378.634 110.444,378.177 110.444 C 377.781 110.444,377.423 110.289,377.344 110.084 C 377.265 109.878,376.906 109.724,376.504 109.724 C 376.101 109.724,375.743 109.570,375.663 109.364 C 375.587 109.166,375.252 109.004,374.917 109.004 C 374.583 109.004,374.310 108.897,374.310 108.766 C 374.310 108.636,373.878 108.460,373.349 108.376 C 372.821 108.291,372.389 108.128,372.389 108.013 C 372.389 107.897,372.078 107.803,371.698 107.803 C 371.318 107.803,370.873 107.641,370.708 107.443 C 370.544 107.245,370.112 107.083,369.748 107.083 C 369.384 107.083,368.952 106.921,368.788 106.723 C 368.623 106.525,368.170 106.363,367.781 106.363 C 367.391 106.363,366.910 106.200,366.712 106.002 C 366.514 105.804,366.042 105.642,365.663 105.642 C 365.284 105.642,364.908 105.534,364.826 105.402 C 364.744 105.270,364.144 105.162,363.491 105.162 C 362.597 105.162,362.305 105.073,362.305 104.802 C 362.305 104.541,362.036 104.442,361.327 104.442 C 360.779 104.442,360.192 104.284,359.990 104.082 C 359.781 103.873,359.194 103.721,358.592 103.721 C 357.891 103.721,357.510 103.605,357.416 103.361 C 357.319 103.108,356.924 103.001,356.090 103.001 C 355.422 103.001,354.862 102.883,354.812 102.731 C 354.762 102.582,354.159 102.406,353.471 102.340 C 352.784 102.274,352.221 102.126,352.221 102.010 C 352.221 101.895,351.640 101.801,350.930 101.801 C 350.075 101.801,349.538 101.679,349.340 101.441 C 349.159 101.223,348.634 101.080,348.015 101.080 C 347.326 101.080,346.945 100.963,346.852 100.720 C 346.757 100.472,346.369 100.360,345.609 100.360 C 344.946 100.360,344.359 100.216,344.143 100.000 C 343.945 99.802,343.413 99.640,342.960 99.640 C 342.507 99.640,342.137 99.532,342.137 99.400 C 342.137 99.268,341.608 99.160,340.962 99.160 C 340.139 99.160,339.746 99.052,339.649 98.800 C 339.558 98.562,339.182 98.439,338.543 98.439 C 337.843 98.439,337.575 98.340,337.575 98.079 C 337.575 97.821,337.311 97.719,336.640 97.719 C 336.031 97.719,335.658 97.594,335.567 97.359 C 335.486 97.146,335.125 96.999,334.684 96.999 C 334.275 96.999,333.777 96.837,333.579 96.639 C 333.381 96.441,333.011 96.279,332.756 96.279 C 332.501 96.279,332.293 96.170,332.293 96.038 C 332.293 95.906,331.969 95.798,331.573 95.798 C 331.092 95.798,330.852 95.678,330.852 95.438 C 330.852 95.218,330.628 95.078,330.278 95.078 C 329.962 95.078,329.641 94.916,329.565 94.718 C 329.489 94.520,329.204 94.358,328.932 94.358 C 328.659 94.358,328.374 94.196,328.298 93.998 C 328.222 93.800,328.054 93.637,327.924 93.637 C 327.624 93.637,325.570 91.535,325.570 91.227 C 325.570 91.100,325.464 90.996,325.335 90.996 C 325.205 90.996,325.031 90.726,324.949 90.396 C 324.866 90.066,324.702 89.796,324.584 89.796 C 324.466 89.796,324.370 89.377,324.370 88.865 C 324.370 88.330,324.216 87.807,324.010 87.635 C 323.812 87.471,323.649 87.038,323.649 86.675 C 323.649 86.311,323.812 85.879,324.010 85.714 C 324.216 85.543,324.370 85.019,324.370 84.484 C 324.370 83.972,324.476 83.553,324.605 83.553 C 324.735 83.553,324.909 83.283,324.991 82.953 C 325.074 82.623,325.238 82.353,325.356 82.353 C 325.474 82.353,325.570 82.191,325.570 81.993 C 325.570 81.795,325.732 81.633,325.930 81.633 C 326.128 81.633,326.291 81.471,326.291 81.273 C 326.291 81.074,326.413 80.912,326.563 80.912 C 326.713 80.912,327.074 80.655,327.366 80.340 C 327.658 80.026,328.129 79.694,328.414 79.604 C 328.699 79.513,328.932 79.339,328.932 79.216 C 328.932 79.092,329.094 78.992,329.292 78.992 C 329.490 78.992,329.652 78.830,329.652 78.631 C 329.652 78.381,329.904 78.271,330.478 78.271 C 330.932 78.271,331.366 78.172,331.441 78.050 C 331.516 77.928,331.901 77.757,332.296 77.670 C 332.690 77.584,333.013 77.413,333.013 77.292 C 333.013 77.170,333.425 77.071,333.928 77.071 C 334.431 77.071,335.052 76.912,335.308 76.718 C 335.596 76.501,336.332 76.363,337.229 76.358 C 338.126 76.353,338.863 76.215,339.150 75.998 C 339.523 75.716,340.553 75.646,344.298 75.646 C 348.043 75.646,349.073 75.716,349.446 75.998 C 349.742 76.222,350.468 76.351,351.444 76.351 C 352.485 76.351,353.091 76.466,353.336 76.711 C 353.534 76.909,353.985 77.074,354.339 77.078 C 354.693 77.083,355.192 77.245,355.448 77.439 C 355.704 77.632,356.164 77.791,356.468 77.791 C 356.773 77.791,357.023 77.899,357.023 78.031 C 357.023 78.163,357.347 78.271,357.743 78.271 C 358.223 78.271,358.463 78.391,358.463 78.631 C 358.463 78.830,358.614 78.992,358.798 78.992 C 358.982 78.992,359.194 79.154,359.270 79.352 C 359.347 79.550,359.628 79.712,359.896 79.712 C 360.170 79.712,360.384 79.870,360.384 80.072 C 360.384 80.270,360.500 80.432,360.641 80.432 C 360.974 80.432,361.585 81.043,361.585 81.375 C 361.585 81.517,361.747 81.633,361.945 81.633 C 362.143 81.633,362.305 81.825,362.305 82.059 C 362.305 82.294,362.629 82.841,363.025 83.275 C 363.421 83.708,363.745 84.264,363.745 84.509 C 363.745 84.754,363.827 84.990,363.926 85.034 C 364.253 85.179,364.946 86.703,364.946 87.277 C 364.946 87.587,365.108 88.003,365.306 88.201 C 365.504 88.399,365.666 88.826,365.666 89.149 C 365.666 89.473,365.828 89.872,366.026 90.036 C 366.224 90.200,366.387 90.595,366.387 90.913 C 366.387 91.231,366.549 91.554,366.747 91.630 C 366.945 91.706,367.107 91.893,367.107 92.045 C 367.107 92.440,368.265 93.637,368.648 93.637 C 368.824 93.637,369.103 93.800,369.268 93.998 C 369.718 94.541,389.381 94.541,389.589 93.998 C 389.698 93.715,390.187 93.637,391.870 93.637 C 393.553 93.637,394.042 93.560,394.151 93.277 C 394.227 93.079,394.521 92.915,394.804 92.913 C 395.389 92.908,396.399 91.953,396.399 91.403 C 396.399 91.201,396.533 90.992,396.698 90.937 C 397.190 90.773,397.256 86.878,396.783 85.931 C 396.564 85.492,396.399 84.564,396.399 83.774 C 396.399 82.861,396.275 82.264,396.038 82.027 C 395.838 81.827,395.678 81.240,395.678 80.707 C 395.678 80.173,395.518 79.586,395.318 79.386 C 395.120 79.188,394.958 78.707,394.958 78.318 C 394.958 77.928,394.796 77.475,394.598 77.311 C 394.400 77.147,394.238 76.808,394.238 76.558 C 394.238 76.308,394.146 75.916,394.033 75.687 C 393.531 74.666,393.058 73.547,392.917 73.049 C 392.833 72.752,392.664 72.509,392.541 72.509 C 392.418 72.509,392.317 72.360,392.317 72.178 C 392.317 71.996,392.155 71.713,391.957 71.549 C 391.759 71.384,391.597 71.047,391.597 70.799 C 391.597 70.551,391.491 70.348,391.361 70.348 C 391.232 70.348,391.058 70.078,390.975 69.748 C 390.892 69.418,390.728 69.148,390.610 69.148 C 390.492 69.148,390.396 68.986,390.396 68.788 C 390.396 68.589,390.246 68.427,390.062 68.427 C 389.878 68.427,389.660 68.157,389.577 67.827 C 389.494 67.497,389.321 67.227,389.191 67.227 C 389.062 67.227,388.956 67.065,388.956 66.867 C 388.956 66.669,388.794 66.507,388.595 66.507 C 388.397 66.507,388.235 66.384,388.235 66.234 C 388.235 66.084,387.965 65.711,387.635 65.405 C 387.305 65.099,387.035 64.736,387.035 64.597 C 387.035 64.459,386.873 64.346,386.675 64.346 C 386.477 64.346,386.315 64.184,386.315 63.986 C 386.315 63.788,386.199 63.625,386.057 63.625 C 385.725 63.625,385.114 63.015,385.114 62.682 C 385.114 62.541,384.952 62.425,384.754 62.425 C 384.556 62.425,384.394 62.263,384.394 62.065 C 384.394 61.867,384.232 61.705,384.034 61.705 C 383.836 61.705,383.673 61.543,383.673 61.345 C 383.673 61.146,383.560 60.984,383.422 60.984 C 383.284 60.984,382.932 60.741,382.640 60.444 C 382.029 59.822,381.335 59.351,380.732 59.149 C 380.501 59.071,380.312 58.858,380.312 58.675 C 380.312 58.493,380.150 58.343,379.952 58.343 C 379.754 58.343,379.592 58.247,379.592 58.129 C 379.592 58.012,379.322 57.847,378.992 57.765 C 378.661 57.682,378.391 57.508,378.391 57.378 C 378.391 57.249,378.067 57.143,377.671 57.143 C 377.191 57.143,376.951 57.023,376.951 56.783 C 376.951 56.585,376.835 56.423,376.694 56.423 C 376.552 56.423,376.274 56.261,376.076 56.062 C 375.878 55.864,375.521 55.702,375.282 55.702 C 375.044 55.702,374.714 55.540,374.550 55.342 C 374.385 55.144,374.007 54.982,373.709 54.982 C 373.412 54.982,373.034 54.820,372.869 54.622 C 372.705 54.424,372.367 54.262,372.119 54.262 C 371.872 54.262,371.669 54.154,371.669 54.022 C 371.669 53.890,371.233 53.782,370.701 53.782 C 370.062 53.782,369.686 53.659,369.595 53.421 C 369.505 53.189,369.134 53.061,368.547 53.061 C 367.961 53.061,367.589 52.933,367.500 52.701 C 367.406 52.456,367.023 52.341,366.303 52.341 C 365.655 52.341,365.129 52.201,364.946 51.981 C 364.756 51.752,364.226 51.621,363.490 51.621 C 362.854 51.621,362.266 51.513,362.185 51.381 C 362.103 51.248,361.352 51.140,360.516 51.140 C 359.385 51.140,358.959 51.048,358.857 50.780 C 358.746 50.492,358.204 50.419,356.130 50.413 C 354.235 50.407,353.417 50.310,353.075 50.052 C 352.372 49.521,337.056 49.528,336.615 50.060 M5.762 51.786 C 5.300 51.846,4.819 51.995,4.694 52.118 C 4.568 52.241,3.839 52.341,3.073 52.341 C 1.995 52.341,1.681 52.422,1.681 52.701 C 1.681 52.909,1.464 53.061,1.167 53.061 C 0.147 53.061,0.016 53.632,0.009 58.103 C 0.004 62.290,0.303 65.354,0.734 65.506 C 0.858 65.550,0.960 66.097,0.960 66.721 C 0.960 67.347,1.118 68.064,1.313 68.321 C 1.507 68.578,1.669 69.233,1.673 69.779 C 1.678 70.358,1.830 70.894,2.041 71.068 C 2.271 71.259,2.401 71.790,2.401 72.538 C 2.401 73.419,2.490 73.709,2.761 73.709 C 3.044 73.709,3.121 74.043,3.121 75.270 C 3.121 76.150,3.226 76.831,3.361 76.831 C 3.493 76.831,3.601 77.363,3.601 78.014 C 3.601 78.746,3.739 79.335,3.962 79.558 C 4.186 79.782,4.322 80.371,4.322 81.118 C 4.322 81.865,4.458 82.455,4.682 82.679 C 4.905 82.902,5.042 83.491,5.042 84.231 C 5.042 85.069,5.149 85.464,5.402 85.561 C 5.662 85.661,5.762 86.068,5.762 87.027 C 5.762 87.758,5.855 88.355,5.969 88.355 C 6.082 88.355,6.238 88.965,6.315 89.710 C 6.392 90.455,6.569 91.179,6.709 91.319 C 6.849 91.458,6.963 92.017,6.963 92.559 C 6.963 93.102,7.121 93.755,7.315 94.012 C 7.509 94.268,7.671 94.994,7.675 95.626 C 7.681 96.419,7.794 96.816,8.043 96.912 C 8.297 97.009,8.406 97.414,8.411 98.285 C 8.415 98.988,8.570 99.721,8.771 99.986 C 8.965 100.242,9.124 100.857,9.124 101.352 C 9.124 101.847,9.232 102.319,9.364 102.401 C 9.496 102.483,9.604 103.037,9.604 103.633 C 9.604 104.276,9.750 104.863,9.964 105.076 C 10.185 105.298,10.324 105.886,10.324 106.603 C 10.324 107.319,10.463 107.908,10.684 108.129 C 10.910 108.354,11.044 108.945,11.044 109.707 C 11.044 110.629,11.132 110.924,11.405 110.924 C 11.684 110.924,11.765 111.243,11.765 112.351 C 11.765 113.135,11.859 113.836,11.975 113.907 C 12.090 113.978,12.236 114.655,12.299 115.410 C 12.361 116.165,12.537 116.824,12.689 116.875 C 12.852 116.929,12.965 117.500,12.965 118.267 C 12.965 119.263,13.050 119.568,13.325 119.568 C 13.605 119.568,13.685 119.885,13.685 120.979 C 13.685 121.940,13.800 122.485,14.046 122.689 C 14.263 122.869,14.406 123.395,14.406 124.012 C 14.406 124.575,14.567 125.345,14.764 125.723 C 14.962 126.101,15.124 126.816,15.125 127.311 C 15.125 127.806,15.234 128.211,15.366 128.211 C 15.498 128.211,15.607 128.670,15.608 129.232 C 15.609 129.793,15.771 130.562,15.968 130.940 C 16.165 131.318,16.327 132.051,16.327 132.568 C 16.327 133.182,16.451 133.556,16.687 133.647 C 16.944 133.746,17.047 134.148,17.047 135.063 C 17.047 135.878,17.177 136.471,17.407 136.700 C 17.631 136.925,17.767 137.514,17.767 138.264 C 17.767 138.926,17.875 139.534,18.007 139.616 C 18.139 139.697,18.247 140.223,18.247 140.785 C 18.247 141.346,18.406 142.015,18.600 142.271 C 18.794 142.527,18.956 143.243,18.960 143.860 C 18.965 144.530,19.113 145.129,19.328 145.344 C 19.554 145.570,19.688 146.160,19.688 146.929 C 19.688 147.797,19.793 148.195,20.048 148.293 C 20.304 148.391,20.408 148.791,20.408 149.678 C 20.408 150.363,20.522 151.039,20.662 151.178 C 20.802 151.318,20.979 152.042,21.056 152.787 C 21.133 153.532,21.289 154.142,21.402 154.142 C 21.516 154.142,21.609 154.607,21.609 155.176 C 21.609 155.745,21.767 156.420,21.961 156.677 C 22.155 156.933,22.317 157.659,22.321 158.291 C 22.327 159.085,22.440 159.481,22.689 159.577 C 22.948 159.676,23.049 160.081,23.049 161.010 C 23.049 162.001,23.134 162.305,23.409 162.305 C 23.686 162.305,23.770 162.612,23.770 163.625 C 23.770 164.352,23.878 164.946,24.010 164.946 C 24.142 164.946,24.250 165.520,24.250 166.221 C 24.250 166.970,24.395 167.687,24.602 167.961 C 24.796 168.218,24.958 168.944,24.962 169.575 C 24.968 170.369,25.081 170.766,25.330 170.862 C 25.587 170.960,25.690 171.362,25.690 172.265 C 25.690 173.097,25.814 173.633,26.050 173.830 C 26.288 174.027,26.411 174.563,26.411 175.405 C 26.411 176.108,26.511 176.744,26.634 176.820 C 26.757 176.896,26.931 177.551,27.022 178.275 C 27.112 178.999,27.282 179.592,27.399 179.592 C 27.515 179.592,27.611 180.070,27.611 180.655 C 27.611 181.280,27.759 181.867,27.971 182.079 C 28.169 182.277,28.331 182.828,28.331 183.304 C 28.331 183.851,28.464 184.219,28.691 184.307 C 28.890 184.383,29.052 184.704,29.052 185.020 C 29.052 185.370,29.192 185.594,29.412 185.594 C 29.610 185.594,29.772 185.701,29.772 185.832 C 29.772 186.291,30.605 187.035,31.120 187.035 C 31.407 187.035,31.703 187.197,31.780 187.395 C 31.988 187.940,58.612 187.940,59.064 187.395 C 59.228 187.197,59.593 187.035,59.876 187.035 C 60.473 187.035,61.705 185.977,61.705 185.464 C 61.705 185.272,61.805 185.114,61.927 185.114 C 62.263 185.114,62.905 183.688,62.905 182.942 C 62.905 182.579,63.066 182.222,63.265 182.146 C 63.500 182.056,63.625 181.682,63.625 181.069 C 63.625 180.528,63.778 180.004,63.986 179.832 C 64.204 179.651,64.346 179.125,64.346 178.499 C 64.346 177.900,64.497 177.314,64.706 177.105 C 64.904 176.907,65.066 176.371,65.066 175.915 C 65.066 175.458,65.227 174.775,65.425 174.397 C 65.622 174.019,65.784 173.365,65.785 172.943 C 65.786 172.522,65.894 172.110,66.026 172.029 C 66.158 171.947,66.267 171.412,66.267 170.840 C 66.267 170.136,66.383 169.755,66.627 169.661 C 66.879 169.564,66.987 169.170,66.987 168.341 C 66.987 167.511,67.094 167.117,67.347 167.020 C 67.588 166.928,67.710 166.541,67.715 165.854 C 67.719 165.289,67.881 164.616,68.075 164.360 C 68.269 164.104,68.427 163.543,68.427 163.114 C 68.427 162.684,68.535 162.266,68.667 162.185 C 68.800 162.103,68.908 161.624,68.908 161.120 C 68.908 160.598,69.063 160.074,69.268 159.904 C 69.495 159.715,69.628 159.185,69.628 158.463 C 69.628 157.741,69.760 157.212,69.988 157.023 C 70.192 156.853,70.348 156.330,70.348 155.813 C 70.348 155.312,70.470 154.861,70.619 154.812 C 70.767 154.762,70.943 154.159,71.009 153.471 C 71.075 152.784,71.224 152.221,71.339 152.221 C 71.454 152.221,71.549 151.627,71.549 150.900 C 71.549 149.887,71.632 149.580,71.909 149.580 C 72.185 149.580,72.269 149.273,72.269 148.259 C 72.269 147.246,72.353 146.939,72.629 146.939 C 72.906 146.939,72.989 146.632,72.989 145.618 C 72.989 144.605,73.073 144.298,73.349 144.298 C 73.618 144.298,73.711 144.008,73.717 143.157 C 73.721 142.530,73.883 141.807,74.077 141.551 C 74.271 141.294,74.430 140.734,74.430 140.304 C 74.430 139.875,74.538 139.457,74.670 139.376 C 74.802 139.294,74.910 138.744,74.910 138.154 C 74.910 137.421,75.024 137.036,75.270 136.942 C 75.512 136.849,75.630 136.468,75.630 135.778 C 75.630 135.160,75.773 134.634,75.990 134.454 C 76.188 134.289,76.354 133.763,76.358 133.284 C 76.362 132.805,76.524 132.203,76.718 131.947 C 76.912 131.691,77.071 131.076,77.071 130.581 C 77.071 130.085,77.179 129.613,77.311 129.532 C 77.443 129.450,77.551 128.850,77.551 128.197 C 77.551 127.303,77.640 127.011,77.911 127.011 C 78.184 127.011,78.271 126.717,78.271 125.803 C 78.271 124.950,78.377 124.554,78.631 124.457 C 78.874 124.364,78.992 123.983,78.992 123.293 C 78.992 122.675,79.134 122.149,79.352 121.969 C 79.555 121.800,79.712 121.277,79.712 120.766 C 79.712 120.269,79.873 119.553,80.071 119.175 C 80.268 118.797,80.430 118.143,80.431 117.721 C 80.432 117.300,80.540 116.888,80.672 116.807 C 80.804 116.725,80.912 116.124,80.912 115.472 C 80.912 114.578,81.001 114.286,81.273 114.286 C 81.548 114.286,81.633 113.982,81.633 112.991 C 81.633 112.061,81.734 111.657,81.993 111.558 C 82.223 111.470,82.356 111.092,82.361 110.512 C 82.365 110.012,82.527 109.394,82.721 109.138 C 82.915 108.881,83.073 108.260,83.073 107.757 C 83.073 107.254,83.181 106.843,83.313 106.843 C 83.445 106.843,83.553 106.370,83.553 105.792 C 83.553 105.150,83.694 104.624,83.914 104.442 C 84.112 104.277,84.277 103.751,84.281 103.272 C 84.286 102.793,84.448 102.191,84.641 101.935 C 84.835 101.679,84.997 101.084,85.002 100.614 C 85.006 100.144,85.168 99.550,85.362 99.294 C 85.556 99.038,85.714 98.487,85.714 98.070 C 85.714 97.243,86.336 95.798,86.692 95.798 C 86.815 95.798,86.915 96.277,86.915 96.862 C 86.915 97.487,87.063 98.073,87.275 98.285 C 87.491 98.501,87.635 99.088,87.635 99.750 C 87.635 100.511,87.747 100.898,87.995 100.994 C 88.248 101.091,88.355 101.485,88.355 102.314 C 88.355 103.144,88.463 103.538,88.715 103.635 C 88.967 103.731,89.076 104.123,89.076 104.933 C 89.076 105.572,89.176 106.156,89.299 106.232 C 89.422 106.308,89.596 106.963,89.687 107.687 C 89.777 108.411,89.933 109.004,90.033 109.004 C 90.133 109.004,90.269 109.566,90.335 110.254 C 90.401 110.942,90.577 111.545,90.726 111.594 C 90.875 111.644,90.996 112.154,90.996 112.728 C 90.996 113.335,91.147 113.922,91.357 114.131 C 91.572 114.347,91.717 114.934,91.717 115.597 C 91.717 116.357,91.829 116.745,92.077 116.840 C 92.320 116.933,92.437 117.315,92.437 118.019 C 92.437 118.591,92.545 119.126,92.677 119.208 C 92.809 119.289,92.917 119.707,92.917 120.136 C 92.917 120.565,93.076 121.126,93.270 121.383 C 93.464 121.639,93.626 122.295,93.630 122.840 C 93.634 123.420,93.787 123.955,93.998 124.130 C 94.228 124.321,94.358 124.852,94.358 125.607 C 94.358 126.433,94.465 126.827,94.718 126.924 C 94.969 127.020,95.078 127.413,95.078 128.223 C 95.078 128.861,95.176 129.444,95.296 129.518 C 95.415 129.592,95.588 130.192,95.678 130.852 C 95.769 131.512,95.941 132.113,96.061 132.187 C 96.181 132.261,96.279 132.726,96.279 133.222 C 96.279 133.717,96.437 134.332,96.631 134.588 C 96.825 134.844,96.987 135.500,96.991 136.045 C 96.996 136.625,97.148 137.160,97.359 137.335 C 97.576 137.515,97.719 138.041,97.719 138.659 C 97.719 139.349,97.837 139.730,98.079 139.823 C 98.333 139.920,98.439 140.317,98.439 141.169 C 98.439 141.833,98.547 142.377,98.679 142.377 C 98.812 142.377,98.920 142.788,98.920 143.291 C 98.920 143.794,99.078 144.416,99.272 144.672 C 99.466 144.928,99.628 145.523,99.632 145.993 C 99.636 146.462,99.798 147.057,99.992 147.313 C 100.186 147.569,100.348 148.171,100.353 148.650 C 100.357 149.129,100.522 149.656,100.720 149.820 C 100.928 149.992,101.080 150.516,101.080 151.053 C 101.080 151.567,101.183 152.175,101.308 152.404 C 101.434 152.634,101.602 153.334,101.683 153.962 C 101.764 154.589,101.932 155.102,102.056 155.102 C 102.179 155.102,102.281 155.646,102.281 156.310 C 102.281 157.162,102.387 157.559,102.641 157.656 C 102.894 157.753,103.001 158.147,103.001 158.977 C 103.001 159.806,103.109 160.200,103.361 160.297 C 103.614 160.394,103.721 160.788,103.721 161.618 C 103.721 162.447,103.829 162.841,104.082 162.938 C 104.340 163.038,104.442 163.442,104.442 164.371 C 104.442 165.084,104.536 165.666,104.651 165.666 C 104.767 165.666,104.915 166.229,104.981 166.917 C 105.047 167.604,105.223 168.208,105.372 168.257 C 105.521 168.307,105.642 168.817,105.642 169.391 C 105.642 169.998,105.793 170.584,106.002 170.794 C 106.201 170.993,106.363 171.580,106.363 172.102 C 106.363 172.652,106.514 173.176,106.723 173.349 C 106.941 173.531,107.083 174.056,107.083 174.685 C 107.083 175.255,107.191 175.789,107.323 175.870 C 107.455 175.952,107.564 176.309,107.565 176.665 C 107.565 177.020,107.727 177.620,107.925 177.999 C 108.122 178.377,108.283 179.031,108.283 179.453 C 108.283 179.875,108.442 180.430,108.636 180.686 C 108.830 180.943,108.992 181.558,108.996 182.053 C 109.001 182.690,109.109 182.953,109.364 182.953 C 109.624 182.953,109.724 183.220,109.724 183.914 C 109.724 184.524,109.834 184.874,110.025 184.874 C 110.191 184.874,110.470 185.198,110.646 185.594 C 110.821 185.990,111.118 186.315,111.305 186.315 C 111.492 186.315,111.645 186.477,111.645 186.675 C 111.645 186.915,111.885 187.035,112.365 187.035 C 112.845 187.035,113.085 187.155,113.085 187.395 C 113.085 187.940,139.523 187.940,139.976 187.395 C 140.140 187.197,140.535 187.035,140.853 187.035 C 141.171 187.035,141.494 186.873,141.570 186.675 C 141.646 186.477,141.859 186.315,142.042 186.315 C 142.226 186.315,142.377 186.152,142.377 185.954 C 142.377 185.756,142.483 185.594,142.612 185.594 C 142.742 185.594,142.916 185.324,142.999 184.994 C 143.082 184.664,143.246 184.394,143.363 184.394 C 143.481 184.394,143.577 183.958,143.577 183.426 C 143.577 182.787,143.700 182.411,143.938 182.320 C 144.190 182.223,144.298 181.829,144.298 180.999 C 144.298 180.170,144.405 179.776,144.658 179.679 C 144.896 179.587,145.021 179.202,145.027 178.546 C 145.031 177.999,145.189 177.281,145.378 176.951 C 145.567 176.621,145.725 175.952,145.730 175.464 C 145.734 174.977,145.846 174.511,145.978 174.430 C 146.110 174.348,146.218 173.815,146.218 173.245 C 146.218 172.616,146.360 172.090,146.579 171.909 C 146.815 171.712,146.939 171.176,146.939 170.344 C 146.939 169.441,147.042 169.039,147.299 168.941 C 147.547 168.846,147.659 168.458,147.659 167.697 C 147.659 167.035,147.803 166.448,148.019 166.232 C 148.240 166.011,148.379 165.423,148.379 164.709 C 148.379 164.069,148.493 163.508,148.631 163.462 C 148.769 163.415,148.947 162.755,149.025 161.994 C 149.104 161.233,149.261 160.553,149.374 160.483 C 149.487 160.413,149.580 159.780,149.580 159.075 C 149.580 158.158,149.682 157.755,149.940 157.656 C 150.192 157.559,150.300 157.166,150.300 156.339 C 150.300 155.585,150.430 155.053,150.660 154.862 C 150.882 154.678,151.020 154.151,151.020 153.495 C 151.020 152.866,151.168 152.279,151.381 152.067 C 151.591 151.856,151.741 151.270,151.741 150.657 C 151.741 150.080,151.849 149.541,151.981 149.460 C 152.113 149.378,152.221 148.791,152.221 148.154 C 152.221 147.419,152.352 146.889,152.581 146.699 C 152.792 146.524,152.944 145.989,152.949 145.409 C 152.953 144.864,153.115 144.208,153.309 143.952 C 153.503 143.695,153.661 143.066,153.661 142.554 C 153.661 142.042,153.824 141.460,154.022 141.262 C 154.230 141.053,154.382 140.467,154.382 139.866 C 154.382 139.297,154.543 138.521,154.740 138.143 C 154.938 137.764,155.100 137.050,155.101 136.555 C 155.101 136.059,155.210 135.654,155.342 135.654 C 155.474 135.654,155.582 135.072,155.582 134.359 C 155.582 133.430,155.684 133.026,155.942 132.926 C 156.197 132.829,156.303 132.431,156.303 131.563 C 156.303 130.794,156.437 130.204,156.663 129.978 C 156.883 129.757,157.023 129.169,157.023 128.464 C 157.023 127.731,157.154 127.201,157.383 127.011 C 157.613 126.820,157.743 126.289,157.743 125.541 C 157.743 124.897,157.851 124.370,157.983 124.370 C 158.115 124.370,158.223 123.787,158.223 123.075 C 158.223 122.145,158.325 121.741,158.583 121.642 C 158.842 121.543,158.944 121.137,158.944 120.201 C 158.944 119.265,159.045 118.860,159.304 118.761 C 159.552 118.666,159.664 118.278,159.664 117.517 C 159.664 116.855,159.808 116.268,160.024 116.052 C 160.236 115.840,160.384 115.254,160.384 114.629 C 160.384 114.044,160.486 113.565,160.610 113.565 C 160.733 113.565,160.901 113.052,160.982 112.425 C 161.063 111.798,161.232 111.097,161.357 110.868 C 161.482 110.638,161.585 110.009,161.585 109.470 C 161.585 108.918,161.742 108.332,161.945 108.129 C 162.184 107.890,162.305 107.291,162.305 106.345 C 162.305 105.240,162.385 104.922,162.665 104.922 C 162.938 104.922,163.025 104.627,163.025 103.704 C 163.025 102.942,163.160 102.352,163.385 102.127 C 163.597 101.915,163.745 101.328,163.745 100.703 C 163.745 100.118,163.854 99.640,163.986 99.640 C 164.118 99.640,164.226 99.059,164.226 98.349 C 164.226 97.494,164.347 96.957,164.586 96.759 C 164.831 96.555,164.946 96.010,164.946 95.049 C 164.946 93.954,165.027 93.637,165.306 93.637 C 165.582 93.637,165.666 93.334,165.666 92.343 C 165.666 91.413,165.768 91.009,166.026 90.910 C 166.262 90.819,166.387 90.445,166.387 89.831 C 166.387 89.314,166.548 88.581,166.745 88.203 C 166.942 87.824,167.105 87.170,167.105 86.749 C 167.106 86.327,167.215 85.916,167.347 85.834 C 167.479 85.753,167.587 85.165,167.587 84.529 C 167.587 83.794,167.718 83.263,167.947 83.073 C 168.184 82.877,168.307 82.341,168.307 81.509 C 168.307 80.606,168.410 80.204,168.667 80.105 C 168.920 80.008,169.028 79.614,169.028 78.779 C 169.028 78.126,169.142 77.553,169.281 77.507 C 169.540 77.420,169.929 75.532,170.149 73.301 C 170.216 72.614,170.424 71.925,170.610 71.771 C 170.824 71.593,170.948 71.017,170.948 70.199 C 170.948 69.211,171.033 68.908,171.309 68.908 C 171.581 68.908,171.669 68.612,171.669 67.690 C 171.669 66.928,171.803 66.338,172.029 66.112 C 172.243 65.898,172.392 65.298,172.397 64.629 C 172.401 64.011,172.563 63.296,172.757 63.039 C 172.951 62.783,173.109 62.168,173.109 61.673 C 173.109 61.178,173.217 60.706,173.349 60.624 C 174.399 59.976,173.303 53.061,172.151 53.061 C 171.914 53.061,171.658 52.899,171.582 52.701 C 171.481 52.438,171.067 52.341,170.044 52.341 C 169.244 52.341,168.515 52.212,168.343 52.041 C 168.114 51.811,165.855 51.741,158.704 51.741 C 151.552 51.741,149.294 51.811,149.064 52.041 C 148.899 52.206,148.245 52.341,147.611 52.341 C 146.747 52.341,146.459 52.431,146.459 52.701 C 146.459 52.916,146.238 53.061,145.912 53.061 C 145.063 53.061,143.577 55.273,143.577 56.536 C 143.577 56.854,143.469 57.181,143.337 57.263 C 143.205 57.345,143.097 57.986,143.097 58.688 C 143.097 59.530,142.975 60.067,142.737 60.264 C 142.526 60.439,142.374 60.974,142.369 61.554 C 142.365 62.099,142.203 62.755,142.009 63.011 C 141.815 63.267,141.653 63.970,141.649 64.572 C 141.645 65.174,141.483 65.876,141.289 66.132 C 141.082 66.406,140.936 67.124,140.936 67.873 C 140.936 68.574,140.828 69.148,140.696 69.148 C 140.564 69.148,140.456 69.729,140.456 70.439 C 140.456 71.294,140.334 71.831,140.096 72.029 C 139.852 72.231,139.736 72.775,139.736 73.713 C 139.736 74.723,139.638 75.136,139.376 75.237 C 139.107 75.340,139.016 75.768,139.016 76.918 C 139.016 78.067,138.924 78.495,138.655 78.598 C 138.411 78.692,138.295 79.076,138.295 79.797 C 138.295 80.380,138.134 81.167,137.937 81.545 C 137.739 81.923,137.577 82.746,137.577 83.373 C 137.576 84.001,137.467 84.514,137.335 84.514 C 137.199 84.514,137.095 85.197,137.095 86.082 C 137.095 87.254,137.004 87.685,136.735 87.788 C 136.478 87.887,136.375 88.289,136.375 89.192 C 136.375 90.024,136.251 90.560,136.014 90.756 C 135.797 90.936,135.654 91.462,135.654 92.079 C 135.654 92.642,135.493 93.412,135.296 93.790 C 135.098 94.168,134.936 94.931,134.935 95.484 C 134.935 96.037,134.826 96.557,134.694 96.639 C 134.562 96.720,134.454 97.362,134.454 98.064 C 134.454 98.906,134.331 99.443,134.094 99.640 C 133.857 99.836,133.733 100.372,133.733 101.200 C 133.733 102.029,133.610 102.565,133.373 102.761 C 133.129 102.964,133.013 103.507,133.013 104.445 C 133.013 105.456,132.916 105.868,132.653 105.969 C 132.400 106.066,132.293 106.460,132.293 107.288 C 132.293 107.937,132.132 108.778,131.934 109.156 C 131.737 109.534,131.575 110.297,131.574 110.850 C 131.573 111.404,131.465 111.923,131.333 112.005 C 131.200 112.086,131.092 112.798,131.092 113.587 C 131.092 114.640,130.997 115.058,130.732 115.159 C 130.465 115.262,130.372 115.687,130.372 116.807 C 130.372 117.927,130.279 118.352,130.012 118.454 C 129.756 118.552,129.650 118.960,129.644 119.860 C 129.640 120.593,129.488 121.325,129.284 121.595 C 129.089 121.852,128.932 122.570,128.932 123.201 C 128.932 123.828,128.824 124.408,128.691 124.490 C 128.559 124.571,128.451 125.180,128.451 125.842 C 128.451 126.591,128.316 127.181,128.091 127.405 C 127.871 127.625,127.731 128.214,127.731 128.919 C 127.731 129.652,127.600 130.182,127.371 130.372 C 127.140 130.564,127.011 131.096,127.011 131.859 C 127.011 132.595,126.874 133.185,126.651 133.408 C 126.430 133.628,126.291 134.216,126.291 134.924 C 126.291 135.559,126.129 136.389,125.932 136.767 L 125.573 137.455 125.572 136.315 C 125.571 135.687,125.476 135.174,125.361 135.174 C 125.245 135.174,125.097 134.611,125.031 133.924 C 124.965 133.236,124.789 132.633,124.640 132.583 C 124.491 132.534,124.370 132.024,124.370 131.450 C 124.370 130.842,124.219 130.256,124.010 130.046 C 123.786 129.823,123.649 129.234,123.649 128.494 C 123.649 127.656,123.543 127.261,123.289 127.164 C 123.036 127.067,122.929 126.672,122.929 125.832 C 122.929 125.175,122.835 124.580,122.720 124.509 C 122.605 124.438,122.457 123.815,122.390 123.124 C 122.324 122.434,122.148 121.828,121.999 121.779 C 121.849 121.729,121.729 121.178,121.729 120.538 C 121.729 119.807,121.597 119.277,121.369 119.088 C 121.141 118.898,121.008 118.369,121.008 117.643 C 121.008 116.847,120.899 116.456,120.648 116.360 C 120.390 116.260,120.288 115.856,120.288 114.923 C 120.288 114.061,120.167 113.524,119.928 113.325 C 119.708 113.143,119.568 112.616,119.568 111.972 C 119.568 111.392,119.465 110.730,119.340 110.501 C 119.215 110.272,119.046 109.571,118.965 108.944 C 118.884 108.316,118.717 107.803,118.593 107.803 C 118.469 107.803,118.367 107.325,118.367 106.740 C 118.367 106.115,118.219 105.528,118.007 105.316 C 117.809 105.118,117.647 104.531,117.647 104.008 C 117.647 103.458,117.496 102.934,117.287 102.761 C 117.069 102.580,116.927 102.054,116.927 101.425 C 116.927 100.855,116.819 100.322,116.687 100.240 C 116.555 100.158,116.447 99.687,116.447 99.191 C 116.447 98.696,116.288 98.081,116.094 97.825 C 115.900 97.569,115.738 96.853,115.734 96.236 C 115.729 95.566,115.581 94.967,115.366 94.752 C 115.153 94.539,115.006 93.952,115.006 93.312 C 115.006 92.671,114.859 92.084,114.646 91.871 C 114.430 91.655,114.286 91.068,114.286 90.406 C 114.286 89.645,114.174 89.258,113.926 89.162 C 113.667 89.063,113.565 88.659,113.565 87.729 C 113.565 87.017,113.457 86.435,113.325 86.435 C 113.193 86.435,113.085 85.969,113.085 85.400 C 113.085 84.831,112.927 84.156,112.733 83.899 C 112.539 83.643,112.377 82.966,112.373 82.396 C 112.368 81.803,112.211 81.204,112.005 80.998 C 111.796 80.789,111.645 80.203,111.645 79.604 C 111.645 78.978,111.503 78.452,111.285 78.271 C 111.066 78.090,110.924 77.564,110.924 76.936 C 110.924 76.365,110.816 75.832,110.684 75.750 C 110.552 75.669,110.444 75.257,110.443 74.836 C 110.442 74.414,110.280 73.760,110.083 73.382 C 109.885 73.004,109.724 72.282,109.724 71.778 C 109.724 71.275,109.562 70.701,109.364 70.502 C 109.148 70.287,109.004 69.699,109.004 69.037 C 109.004 68.276,108.891 67.889,108.643 67.794 C 108.386 67.695,108.283 67.294,108.283 66.390 C 108.283 65.558,108.160 65.022,107.923 64.826 C 107.705 64.645,107.563 64.119,107.563 63.490 C 107.563 62.920,107.455 62.387,107.323 62.305 C 107.191 62.223,107.082 61.704,107.081 61.150 C 107.081 60.597,106.918 59.835,106.721 59.456 C 106.524 59.078,106.363 58.403,106.363 57.956 C 106.363 57.393,106.252 57.143,106.002 57.143 C 105.743 57.143,105.642 56.877,105.642 56.194 C 105.642 55.673,105.507 55.160,105.342 55.054 C 104.991 54.829,104.487 54.079,104.287 53.481 C 104.205 53.238,103.905 53.061,103.573 53.061 C 103.225 53.061,103.001 52.920,103.001 52.701 C 103.001 52.422,102.686 52.341,101.609 52.341 C 100.815 52.341,100.087 52.212,99.916 52.041 C 99.684 51.808,96.803 51.741,87.155 51.741 C 77.506 51.741,74.626 51.808,74.394 52.041 C 74.229 52.206,73.534 52.341,72.851 52.341 C 72.038 52.341,71.504 52.466,71.309 52.701 C 71.144 52.899,70.861 53.061,70.679 53.061 C 70.497 53.061,70.348 53.223,70.348 53.421 C 70.348 53.619,70.186 53.782,69.988 53.782 C 69.790 53.782,69.628 53.944,69.628 54.142 C 69.628 54.340,69.522 54.502,69.392 54.502 C 69.263 54.502,69.089 54.772,69.006 55.102 C 68.923 55.432,68.759 55.702,68.641 55.702 C 68.524 55.702,68.427 56.138,68.427 56.670 C 68.427 57.309,68.305 57.685,68.067 57.776 C 67.841 57.863,67.704 58.239,67.699 58.789 C 67.695 59.270,67.533 59.874,67.339 60.130 C 67.145 60.386,66.983 60.980,66.979 61.450 C 66.975 61.920,66.813 62.515,66.619 62.771 C 66.425 63.027,66.267 63.649,66.267 64.152 C 66.267 64.655,66.158 65.066,66.026 65.066 C 65.894 65.066,65.786 65.660,65.786 66.387 C 65.786 67.400,65.703 67.707,65.426 67.707 C 65.161 67.707,65.066 67.984,65.066 68.758 C 65.066 69.399,64.926 69.926,64.706 70.108 C 64.497 70.281,64.346 70.805,64.346 71.355 C 64.346 71.878,64.184 72.465,63.986 72.663 C 63.788 72.861,63.625 73.382,63.625 73.819 C 63.625 74.257,63.464 74.924,63.267 75.303 C 63.070 75.681,62.907 76.335,62.907 76.757 C 62.906 77.178,62.797 77.589,62.665 77.671 C 62.533 77.753,62.425 78.253,62.425 78.783 C 62.425 79.319,62.265 79.906,62.065 80.106 C 61.867 80.304,61.705 80.878,61.705 81.380 C 61.705 81.900,61.549 82.423,61.345 82.593 C 61.134 82.768,60.981 83.303,60.977 83.883 C 60.973 84.428,60.810 85.084,60.617 85.340 C 60.423 85.596,60.264 86.211,60.264 86.706 C 60.264 87.202,60.156 87.673,60.024 87.755 C 59.892 87.837,59.784 88.441,59.784 89.097 C 59.784 89.937,59.677 90.332,59.424 90.429 C 59.181 90.522,59.064 90.903,59.064 91.593 C 59.064 92.211,58.921 92.737,58.703 92.917 C 58.505 93.082,58.340 93.608,58.336 94.087 C 58.332 94.566,58.169 95.168,57.976 95.424 C 57.782 95.680,57.623 96.226,57.623 96.637 C 57.623 97.047,57.516 97.490,57.385 97.621 C 57.117 97.889,56.680 99.700,56.494 101.321 C 56.425 101.915,56.219 102.487,56.036 102.593 C 55.824 102.715,55.702 103.208,55.702 103.948 C 55.702 104.760,55.594 105.152,55.342 105.249 C 55.089 105.346,54.982 105.740,54.982 106.569 C 54.982 107.399,54.875 107.793,54.622 107.890 C 54.368 107.987,54.262 108.384,54.262 109.236 C 54.262 109.901,54.154 110.444,54.022 110.444 C 53.890 110.444,53.782 110.917,53.782 111.495 C 53.782 112.137,53.641 112.663,53.421 112.845 C 53.212 113.018,53.061 113.542,53.061 114.092 C 53.061 114.615,52.900 115.202,52.701 115.400 C 52.501 115.601,52.341 116.187,52.341 116.721 C 52.341 117.255,52.181 117.841,51.981 118.042 C 51.771 118.251,51.621 118.838,51.621 119.445 C 51.621 120.019,51.502 120.528,51.357 120.576 C 51.212 120.624,51.036 121.176,50.965 121.802 C 50.894 122.428,50.743 122.998,50.628 123.069 C 50.514 123.140,50.420 123.612,50.420 124.118 C 50.420 124.715,50.293 125.087,50.060 125.177 C 49.807 125.274,49.700 125.668,49.700 126.497 C 49.700 127.327,49.592 127.721,49.340 127.818 C 49.099 127.910,48.977 128.297,48.972 128.984 C 48.968 129.549,48.806 130.222,48.612 130.478 C 48.418 130.734,48.259 131.349,48.259 131.844 C 48.259 132.340,48.151 132.812,48.019 132.893 C 47.887 132.975,47.779 133.510,47.779 134.082 C 47.779 134.786,47.662 135.167,47.419 135.261 C 47.161 135.360,47.059 135.237,47.059 134.824 C 47.059 134.507,46.897 134.086,46.699 133.888 C 46.475 133.664,46.339 133.074,46.339 132.327 C 46.339 131.580,46.202 130.991,45.978 130.767 C 45.744 130.532,45.618 129.937,45.618 129.061 C 45.618 128.087,45.519 127.678,45.258 127.578 C 44.995 127.477,44.898 127.062,44.898 126.039 C 44.898 125.269,44.803 124.580,44.687 124.508 C 44.571 124.436,44.428 123.707,44.368 122.887 C 44.308 122.049,44.137 121.355,43.979 121.302 C 43.807 121.245,43.697 120.665,43.697 119.805 C 43.697 118.878,43.575 118.279,43.337 118.042 C 43.114 117.818,42.977 117.229,42.977 116.493 C 42.977 115.730,42.848 115.198,42.617 115.006 C 42.372 114.802,42.257 114.257,42.257 113.296 C 42.257 112.520,42.164 111.885,42.051 111.885 C 41.938 111.885,41.775 111.214,41.689 110.395 C 41.604 109.575,41.426 108.797,41.295 108.666 C 41.164 108.535,41.056 107.990,41.055 107.455 C 41.054 106.920,40.892 106.173,40.695 105.795 C 40.498 105.417,40.336 104.647,40.336 104.084 C 40.336 103.467,40.193 102.941,39.976 102.761 C 39.739 102.565,39.616 102.029,39.616 101.197 C 39.616 100.293,39.513 99.892,39.256 99.793 C 38.986 99.690,38.896 99.259,38.896 98.087 C 38.896 97.201,38.791 96.519,38.655 96.519 C 38.523 96.519,38.415 95.945,38.415 95.244 C 38.415 94.495,38.270 93.777,38.063 93.503 C 37.863 93.238,37.707 92.506,37.703 91.806 C 37.698 91.012,37.567 90.469,37.335 90.276 C 37.090 90.072,36.975 89.528,36.975 88.566 C 36.975 87.472,36.894 87.155,36.615 87.155 C 36.334 87.155,36.255 86.834,36.255 85.711 C 36.255 84.917,36.152 84.080,36.026 83.850 C 35.901 83.621,35.731 82.814,35.649 82.057 C 35.567 81.299,35.400 80.618,35.277 80.542 C 35.155 80.466,35.054 79.883,35.054 79.247 C 35.054 78.511,34.923 77.981,34.694 77.791 C 34.457 77.594,34.334 77.058,34.334 76.218 C 34.334 75.406,34.203 74.814,33.974 74.584 C 33.750 74.361,33.613 73.772,33.613 73.036 C 33.613 72.272,33.485 71.741,33.253 71.549 C 33.016 71.351,32.893 70.815,32.893 69.973 C 32.893 69.270,32.785 68.629,32.653 68.547 C 32.521 68.466,32.413 67.862,32.413 67.205 C 32.413 66.365,32.306 65.970,32.053 65.873 C 31.784 65.770,31.693 65.342,31.693 64.192 C 31.693 63.043,31.601 62.615,31.333 62.512 C 31.064 62.409,30.972 61.981,30.972 60.831 C 30.972 59.682,30.881 59.253,30.612 59.150 C 30.361 59.054,30.252 58.662,30.252 57.852 C 30.252 57.213,30.144 56.624,30.012 56.543 C 29.880 56.461,29.772 56.239,29.772 56.050 C 29.772 55.430,28.946 53.782,28.635 53.782 C 28.468 53.782,28.331 53.619,28.331 53.421 C 28.331 53.223,28.128 53.061,27.881 53.061 C 27.633 53.061,27.295 52.899,27.131 52.701 C 26.943 52.475,26.414 52.341,25.709 52.341 C 25.091 52.341,24.451 52.206,24.286 52.041 C 23.988 51.743,7.815 51.520,5.762 51.786 M183.673 51.786 C 183.211 51.846,182.730 51.995,182.605 52.118 C 182.480 52.241,181.828 52.341,181.158 52.341 C 179.970 52.341,179.112 52.846,179.112 53.544 C 179.112 53.675,178.950 53.782,178.752 53.782 C 178.553 53.782,178.391 53.908,178.391 54.063 C 178.391 54.217,178.202 54.553,177.971 54.808 C 177.573 55.248,177.551 58.690,177.551 119.973 C 177.551 181.315,177.573 184.689,177.971 184.980 C 178.202 185.149,178.391 185.518,178.391 185.801 C 178.391 186.097,178.544 186.315,178.752 186.315 C 178.950 186.315,179.112 186.477,179.112 186.675 C 179.112 186.894,179.336 187.035,179.686 187.035 C 180.002 187.035,180.323 187.197,180.399 187.395 C 180.519 187.708,182.000 187.755,191.709 187.755 C 201.480 187.755,202.881 187.710,202.881 187.395 C 202.881 187.155,203.121 187.035,203.601 187.035 C 204.082 187.035,204.322 186.915,204.322 186.675 C 204.322 186.477,204.484 186.315,204.682 186.315 C 204.880 186.315,205.042 186.199,205.042 186.057 C 205.042 185.916,205.204 185.638,205.402 185.440 C 205.647 185.195,205.762 184.590,205.762 183.550 C 205.762 182.709,205.870 181.954,206.002 181.873 C 206.161 181.775,206.242 168.975,206.242 144.254 C 206.242 110.975,206.283 106.817,206.603 107.083 C 206.801 107.247,206.963 107.585,206.963 107.833 C 206.963 108.080,207.125 108.283,207.323 108.283 C 207.543 108.283,207.683 108.507,207.683 108.858 C 207.683 109.174,207.845 109.495,208.043 109.571 C 208.241 109.647,208.403 109.874,208.403 110.076 C 208.403 110.279,208.565 110.444,208.764 110.444 C 208.988 110.444,209.124 110.671,209.124 111.044 C 209.124 111.375,209.219 111.645,209.336 111.645 C 209.452 111.645,209.611 111.834,209.689 112.065 C 209.890 112.663,210.393 113.413,210.744 113.637 C 210.909 113.743,211.044 114.043,211.044 114.305 C 211.044 114.567,211.206 114.843,211.405 114.919 C 211.603 114.995,211.765 115.208,211.765 115.392 C 211.765 115.576,211.873 115.726,212.005 115.726 C 212.137 115.726,212.245 115.881,212.245 116.069 C 212.245 116.258,212.393 116.560,212.573 116.741 C 212.754 116.921,212.977 117.307,213.070 117.598 C 213.162 117.889,213.338 118.127,213.462 118.127 C 213.585 118.127,213.685 118.343,213.685 118.607 C 213.685 118.874,213.846 119.088,214.046 119.088 C 214.270 119.088,214.406 119.314,214.406 119.688 C 214.406 120.018,214.541 120.289,214.706 120.290 C 215.018 120.292,215.606 121.347,215.606 121.904 C 215.606 122.080,215.759 122.282,215.945 122.354 C 216.131 122.425,216.349 122.746,216.429 123.067 C 216.510 123.387,216.682 123.649,216.811 123.649 C 216.941 123.649,217.047 123.812,217.047 124.010 C 217.047 124.208,217.209 124.370,217.407 124.370 C 217.631 124.370,217.767 124.597,217.767 124.970 C 217.767 125.300,217.863 125.570,217.979 125.570 C 218.096 125.570,218.261 125.759,218.345 125.990 C 218.645 126.807,219.237 127.731,219.461 127.731 C 219.586 127.731,219.688 127.951,219.688 128.219 C 219.688 128.487,219.850 128.769,220.048 128.845 C 220.246 128.921,220.408 129.087,220.408 129.215 C 220.408 129.342,220.570 129.608,220.768 129.806 C 220.966 130.004,221.128 130.375,221.128 130.629 C 221.128 130.884,221.219 131.092,221.330 131.092 C 221.441 131.092,221.738 131.523,221.990 132.050 C 222.243 132.577,222.584 133.009,222.749 133.010 C 222.914 133.012,223.049 133.224,223.049 133.481 C 223.049 133.738,223.319 134.240,223.649 134.597 C 223.980 134.953,224.250 135.448,224.250 135.697 C 224.250 135.946,224.402 136.208,224.588 136.279 C 224.774 136.351,224.992 136.672,225.073 136.992 C 225.153 137.313,225.325 137.575,225.455 137.575 C 225.584 137.575,225.690 137.737,225.690 137.935 C 225.690 138.133,225.852 138.295,226.050 138.295 C 226.254 138.295,226.411 138.511,226.411 138.792 C 226.411 139.064,226.681 139.642,227.011 140.075 C 227.341 140.508,227.611 141.041,227.611 141.259 C 227.611 141.478,227.773 141.657,227.971 141.657 C 228.191 141.657,228.331 141.881,228.331 142.231 C 228.331 142.547,228.493 142.868,228.691 142.944 C 228.890 143.020,229.052 143.236,229.052 143.424 C 229.052 143.612,229.214 143.828,229.412 143.904 C 229.610 143.980,229.772 144.262,229.772 144.530 C 229.772 144.799,229.868 145.018,229.986 145.018 C 230.104 145.018,230.268 145.288,230.351 145.618 C 230.434 145.948,230.607 146.218,230.737 146.218 C 230.866 146.218,230.972 146.381,230.972 146.579 C 230.972 146.777,231.134 146.939,231.333 146.939 C 231.555 146.939,231.693 147.164,231.693 147.527 C 231.693 147.851,231.828 148.202,231.993 148.307 C 232.344 148.532,232.847 149.282,233.048 149.880 C 233.126 150.111,233.273 150.300,233.375 150.300 C 233.478 150.300,233.625 150.552,233.702 150.859 C 233.779 151.166,234.115 151.712,234.448 152.072 C 234.781 152.432,235.054 152.936,235.054 153.194 C 235.054 153.451,235.216 153.661,235.414 153.661 C 235.612 153.661,235.774 153.825,235.774 154.025 C 235.774 154.485,236.282 155.403,236.675 155.654 C 236.840 155.760,236.975 156.060,236.975 156.322 C 236.975 156.584,237.137 156.860,237.335 156.936 C 237.533 157.012,237.695 157.213,237.695 157.383 C 237.695 157.553,237.857 157.754,238.055 157.830 C 238.253 157.906,238.415 158.188,238.415 158.456 C 238.415 158.724,238.521 158.944,238.651 158.944 C 238.780 158.944,238.954 159.214,239.037 159.544 C 239.120 159.874,239.284 160.144,239.402 160.144 C 239.520 160.144,239.616 160.310,239.616 160.512 C 239.616 160.714,239.778 160.942,239.976 161.018 C 240.174 161.094,240.336 161.414,240.336 161.730 C 240.336 162.081,240.476 162.305,240.696 162.305 C 240.894 162.305,241.056 162.454,241.056 162.636 C 241.056 162.818,241.218 163.101,241.417 163.265 C 241.615 163.430,241.777 163.767,241.777 164.015 C 241.777 164.263,241.883 164.466,242.012 164.466 C 242.142 164.466,242.316 164.736,242.398 165.066 C 242.481 165.396,242.645 165.666,242.763 165.666 C 242.881 165.666,242.977 165.828,242.977 166.026 C 242.977 166.224,243.139 166.387,243.337 166.387 C 243.561 166.387,243.697 166.613,243.697 166.987 C 243.697 167.360,243.834 167.587,244.058 167.587 C 244.262 167.587,244.418 167.802,244.418 168.084 C 244.418 168.358,244.553 168.732,244.718 168.916 C 245.466 169.751,245.618 169.992,245.618 170.346 C 245.618 170.553,245.780 170.786,245.978 170.862 C 246.176 170.938,246.339 171.150,246.339 171.334 C 246.339 171.518,246.501 171.669,246.699 171.669 C 246.924 171.669,247.059 171.896,247.059 172.276 C 247.059 172.611,247.221 172.946,247.419 173.022 C 247.617 173.098,247.779 173.349,247.779 173.580 C 247.779 173.811,248.049 174.291,248.379 174.647 C 248.709 175.003,248.980 175.494,248.980 175.737 C 248.980 175.980,249.115 176.233,249.280 176.298 C 249.445 176.364,249.796 176.835,250.059 177.345 C 250.323 177.854,250.674 178.414,250.840 178.589 C 251.005 178.763,251.140 179.060,251.140 179.249 C 251.140 179.437,251.248 179.592,251.381 179.592 C 251.513 179.592,251.621 179.742,251.621 179.926 C 251.621 180.110,251.783 180.323,251.981 180.399 C 252.179 180.475,252.341 180.751,252.341 181.013 C 252.341 181.275,252.476 181.575,252.641 181.681 C 252.992 181.905,253.496 182.656,253.696 183.253 C 253.774 183.484,253.933 183.673,254.050 183.673 C 254.166 183.673,254.262 183.836,254.262 184.034 C 254.262 184.232,254.424 184.394,254.622 184.394 C 254.820 184.394,254.982 184.539,254.982 184.717 C 254.982 185.196,256.019 186.315,256.465 186.315 C 256.677 186.315,256.914 186.477,256.990 186.675 C 257.066 186.873,257.401 187.035,257.736 187.035 C 258.116 187.035,258.343 187.170,258.343 187.395 C 258.343 187.711,259.904 187.755,270.948 187.755 C 281.993 187.755,283.553 187.711,283.553 187.395 C 283.553 187.155,283.794 187.035,284.274 187.035 C 284.754 187.035,284.994 186.915,284.994 186.675 C 284.994 186.477,285.156 186.315,285.354 186.315 C 285.565 186.315,285.717 186.091,285.722 185.774 C 285.726 185.477,285.888 185.024,286.082 184.768 C 286.672 183.988,286.609 56.107,286.018 54.744 C 285.789 54.214,285.464 53.782,285.298 53.782 C 285.131 53.782,284.994 53.619,284.994 53.421 C 284.994 53.223,284.832 53.061,284.634 53.061 C 284.436 53.061,284.274 52.899,284.274 52.701 C 284.274 52.431,283.986 52.341,283.121 52.341 C 282.487 52.341,281.834 52.206,281.669 52.041 C 281.242 51.614,265.965 51.460,264.104 51.864 C 263.378 52.021,262.223 52.202,261.536 52.267 C 260.849 52.331,260.161 52.536,260.006 52.723 C 259.852 52.909,259.576 53.061,259.394 53.061 C 259.212 53.061,259.064 53.177,259.064 53.318 C 259.064 53.460,258.902 53.738,258.703 53.936 C 258.502 54.138,258.340 54.737,258.336 55.299 C 258.332 55.851,258.169 56.512,257.976 56.769 C 257.669 57.174,257.623 62.268,257.623 95.844 C 257.623 130.004,257.582 134.454,257.263 134.454 C 257.065 134.454,256.903 134.290,256.903 134.090 C 256.903 133.630,256.396 132.713,256.002 132.461 C 255.837 132.355,255.702 132.064,255.702 131.813 C 255.702 131.562,255.567 131.270,255.402 131.164 C 255.051 130.940,254.547 130.190,254.347 129.592 C 254.269 129.361,254.122 129.172,254.020 129.172 C 253.917 129.172,253.760 128.880,253.671 128.524 C 253.581 128.167,253.246 127.632,252.925 127.335 C 252.604 127.037,252.341 126.572,252.341 126.302 C 252.341 126.025,252.184 125.810,251.981 125.810 C 251.761 125.810,251.621 125.586,251.621 125.236 C 251.621 124.920,251.459 124.599,251.261 124.523 C 251.062 124.447,250.900 124.219,250.900 124.017 C 250.900 123.815,250.792 123.649,250.660 123.649 C 250.528 123.649,250.420 123.495,250.420 123.306 C 250.420 123.118,250.285 122.816,250.120 122.636 C 249.688 122.165,249.227 121.432,249.069 120.965 C 248.994 120.743,248.781 120.503,248.596 120.432 C 248.411 120.361,248.259 120.121,248.259 119.898 C 248.259 119.675,247.989 119.139,247.659 118.706 C 247.329 118.273,247.059 117.750,247.059 117.543 C 247.059 117.336,246.897 117.167,246.699 117.167 C 246.501 117.167,246.339 116.964,246.339 116.716 C 246.339 116.468,246.176 116.131,245.978 115.966 C 245.780 115.802,245.618 115.519,245.618 115.337 C 245.618 115.155,245.456 115.006,245.258 115.006 C 245.034 115.006,244.898 114.779,244.898 114.406 C 244.898 114.076,244.803 113.806,244.686 113.806 C 244.569 113.806,244.404 113.616,244.320 113.385 C 244.020 112.568,243.428 111.645,243.204 111.645 C 243.079 111.645,242.977 111.425,242.977 111.157 C 242.977 110.889,242.815 110.607,242.617 110.531 C 242.419 110.455,242.257 110.242,242.257 110.058 C 242.257 109.874,242.149 109.724,242.017 109.724 C 241.885 109.724,241.777 109.570,241.777 109.381 C 241.777 109.192,241.641 108.895,241.475 108.721 C 241.309 108.546,240.958 107.945,240.695 107.386 C 240.431 106.826,240.081 106.367,239.916 106.365 C 239.751 106.364,239.616 106.092,239.616 105.762 C 239.616 105.389,239.480 105.162,239.256 105.162 C 239.058 105.162,238.896 105.017,238.896 104.839 C 238.896 104.357,238.174 103.001,237.918 103.001 C 237.795 103.001,237.695 102.782,237.695 102.513 C 237.695 102.245,237.533 101.964,237.335 101.888 C 237.137 101.812,236.975 101.599,236.975 101.415 C 236.975 101.231,236.813 101.080,236.615 101.080 C 236.413 101.080,236.255 100.866,236.255 100.595 C 236.255 100.329,235.984 99.683,235.654 99.160 C 235.324 98.637,235.054 98.099,235.054 97.964 C 235.054 97.829,234.892 97.719,234.694 97.719 C 234.470 97.719,234.334 97.492,234.334 97.119 C 234.334 96.745,234.198 96.519,233.974 96.519 C 233.776 96.519,233.613 96.316,233.613 96.068 C 233.613 95.820,233.451 95.483,233.253 95.318 C 233.055 95.154,232.893 94.870,232.893 94.688 C 232.893 94.507,232.797 94.358,232.679 94.358 C 232.561 94.358,232.397 94.088,232.314 93.758 C 232.232 93.427,232.058 93.157,231.928 93.157 C 231.799 93.157,231.693 93.007,231.693 92.823 C 231.693 92.639,231.531 92.426,231.333 92.350 C 231.134 92.274,230.972 91.989,230.972 91.717 C 230.972 91.444,230.810 91.159,230.612 91.083 C 230.414 91.007,230.252 90.756,230.252 90.526 C 230.252 90.295,229.982 89.815,229.652 89.458 C 229.322 89.102,229.052 88.714,229.052 88.595 C 229.052 88.476,228.727 87.899,228.331 87.312 C 227.935 86.725,227.611 86.126,227.611 85.980 C 227.611 85.834,227.449 85.714,227.251 85.714 C 227.027 85.714,226.891 85.488,226.891 85.114 C 226.891 84.784,226.783 84.514,226.651 84.514 C 226.519 84.514,226.411 84.363,226.411 84.179 C 226.411 83.995,226.248 83.783,226.050 83.707 C 225.852 83.631,225.690 83.346,225.690 83.073 C 225.690 82.801,225.528 82.516,225.330 82.440 C 225.132 82.364,224.970 82.094,224.970 81.840 C 224.970 81.585,224.808 81.315,224.610 81.239 C 224.412 81.163,224.250 80.951,224.250 80.767 C 224.250 80.583,224.150 80.432,224.029 80.432 C 223.907 80.432,223.736 80.108,223.649 79.712 C 223.562 79.316,223.409 78.992,223.309 78.992 C 223.209 78.992,222.920 78.561,222.668 78.034 C 222.415 77.507,222.074 77.075,221.909 77.074 C 221.744 77.072,221.609 76.860,221.609 76.603 C 221.609 76.346,221.339 75.844,221.008 75.488 C 220.678 75.131,220.408 74.636,220.408 74.387 C 220.408 74.138,220.246 73.872,220.048 73.796 C 219.850 73.720,219.688 73.450,219.688 73.196 C 219.688 72.942,219.526 72.672,219.328 72.596 C 219.130 72.520,218.968 72.307,218.968 72.123 C 218.968 71.939,218.806 71.789,218.607 71.789 C 218.367 71.789,218.247 71.549,218.247 71.068 C 218.247 70.672,218.157 70.348,218.046 70.348 C 217.935 70.348,217.638 69.917,217.386 69.391 C 217.133 68.864,216.792 68.432,216.627 68.430 C 216.462 68.429,216.327 68.208,216.327 67.939 C 216.327 67.671,216.002 67.134,215.606 66.747 C 215.210 66.359,214.886 65.823,214.886 65.554 C 214.886 65.286,214.790 65.066,214.672 65.066 C 214.554 65.066,214.390 64.796,214.307 64.466 C 214.224 64.136,214.051 63.866,213.921 63.866 C 213.791 63.866,213.685 63.703,213.685 63.505 C 213.685 63.307,213.523 63.145,213.325 63.145 C 213.085 63.145,212.965 62.905,212.965 62.425 C 212.965 61.945,212.845 61.705,212.605 61.705 C 212.407 61.705,212.245 61.504,212.245 61.260 C 212.245 61.015,211.989 60.538,211.676 60.201 C 211.363 59.863,211.037 59.307,210.951 58.965 C 210.865 58.623,210.689 58.343,210.560 58.343 C 210.430 58.343,210.324 58.193,210.324 58.009 C 210.324 57.825,210.162 57.612,209.964 57.536 C 209.766 57.460,209.604 57.179,209.604 56.910 C 209.604 56.637,209.446 56.423,209.244 56.423 C 209.046 56.423,208.884 56.261,208.884 56.062 C 208.884 55.864,208.776 55.702,208.643 55.702 C 208.511 55.702,208.403 55.573,208.403 55.415 C 208.403 54.961,207.158 53.782,206.678 53.782 C 206.438 53.782,206.242 53.619,206.242 53.421 C 206.242 53.219,206.028 53.061,205.755 53.061 C 205.487 53.061,205.205 52.899,205.129 52.701 C 205.028 52.439,204.617 52.341,203.624 52.341 C 202.850 52.341,202.127 52.211,201.957 52.041 C 201.659 51.743,185.722 51.520,183.673 51.786 " stroke="none" fill="#040404" fill-rule="evenodd"></path></g></svg>